<mxfile host="app.diagrams.net" modified="2020-11-30T19:56:15.906Z" agent="5.0 (Windows NT 10.0; Win64; x64) AppleWebKit/537.36 (KHTML, like Gecko) Chrome/87.0.4280.66 Safari/537.36" etag="bLl_0syIBemvKqr5KlTB" version="13.10.4" type="github">
  <diagram id="C5RBs43oDa-KdzZeNtuy" name="Page-1">
    <mxGraphModel dx="1038" dy="582" grid="1" gridSize="10" guides="1" tooltips="1" connect="1" arrows="1" fold="1" page="1" pageScale="1" pageWidth="827" pageHeight="1169" math="0" shadow="0">
      <root>
        <mxCell id="WIyWlLk6GJQsqaUBKTNV-0" />
        <mxCell id="WIyWlLk6GJQsqaUBKTNV-1" parent="WIyWlLk6GJQsqaUBKTNV-0" />
        <mxCell id="CnT8XC3Yh3xOQjfNWCCS-0" value="Hotel Class" style="swimlane;fontStyle=1;align=center;verticalAlign=top;childLayout=stackLayout;horizontal=1;startSize=40;horizontalStack=0;resizeParent=1;resizeParentMax=0;resizeLast=0;collapsible=1;marginBottom=0;fontSize=19;" parent="WIyWlLk6GJQsqaUBKTNV-1" vertex="1">
          <mxGeometry x="130" y="500" width="190" height="270" as="geometry">
            <mxRectangle x="80" y="330" width="100" height="26" as="alternateBounds" />
          </mxGeometry>
        </mxCell>
        <mxCell id="CnT8XC3Yh3xOQjfNWCCS-1" value="+hotel_id = int&#xa;+hotel_name = string&#xa;+hotel_address = string&#xa;+hotel_phone = int&#xa;+hotel_email = string&#xa;+hotel_type = string&#xa;+hotel_rent = string&#xa;+hotel_description = string&#xa;+hotel_noofrooms = int&#xa;&#xa;" style="text;strokeColor=none;fillColor=none;align=left;verticalAlign=top;spacingLeft=4;spacingRight=4;overflow=hidden;rotatable=0;points=[[0,0.5],[1,0.5]];portConstraint=eastwest;" parent="CnT8XC3Yh3xOQjfNWCCS-0" vertex="1">
          <mxGeometry y="40" width="190" height="140" as="geometry" />
        </mxCell>
        <mxCell id="CnT8XC3Yh3xOQjfNWCCS-2" value="" style="line;strokeWidth=1;fillColor=none;align=left;verticalAlign=middle;spacingTop=-1;spacingLeft=3;spacingRight=3;rotatable=0;labelPosition=right;points=[];portConstraint=eastwest;" parent="CnT8XC3Yh3xOQjfNWCCS-0" vertex="1">
          <mxGeometry y="180" width="190" height="8" as="geometry" />
        </mxCell>
        <mxCell id="CnT8XC3Yh3xOQjfNWCCS-3" value="+addHotel()&#xa;+editHotel()&#xa;+searchHotel()&#xa;+deleteHotel()&#xa;+FindRoom()&#xa;&#xa;&#xa;" style="text;strokeColor=none;fillColor=none;align=left;verticalAlign=top;spacingLeft=4;spacingRight=4;overflow=hidden;rotatable=0;points=[[0,0.5],[1,0.5]];portConstraint=eastwest;" parent="CnT8XC3Yh3xOQjfNWCCS-0" vertex="1">
          <mxGeometry y="188" width="190" height="82" as="geometry" />
        </mxCell>
        <mxCell id="CnT8XC3Yh3xOQjfNWCCS-25" value="Flight" style="swimlane;fontStyle=1;align=center;verticalAlign=top;childLayout=stackLayout;horizontal=1;startSize=30;horizontalStack=0;resizeParent=1;resizeParentMax=0;resizeLast=0;collapsible=1;marginBottom=0;fontSize=19;" parent="WIyWlLk6GJQsqaUBKTNV-1" vertex="1">
          <mxGeometry x="270" y="830" width="160" height="98" as="geometry" />
        </mxCell>
        <mxCell id="CnT8XC3Yh3xOQjfNWCCS-26" value="+flight_id=int&#xa;+flight_name = string&#xa;+flight_date = date&#xa;+flight_seat_number = int&#xa;&#xa;&#xa;" style="text;strokeColor=none;fillColor=none;align=left;verticalAlign=top;spacingLeft=4;spacingRight=4;overflow=hidden;rotatable=0;points=[[0,0.5],[1,0.5]];portConstraint=eastwest;" parent="CnT8XC3Yh3xOQjfNWCCS-25" vertex="1">
          <mxGeometry y="30" width="160" height="60" as="geometry" />
        </mxCell>
        <mxCell id="CnT8XC3Yh3xOQjfNWCCS-27" value="" style="line;strokeWidth=1;fillColor=none;align=left;verticalAlign=middle;spacingTop=-1;spacingLeft=3;spacingRight=3;rotatable=0;labelPosition=right;points=[];portConstraint=eastwest;" parent="CnT8XC3Yh3xOQjfNWCCS-25" vertex="1">
          <mxGeometry y="90" width="160" height="8" as="geometry" />
        </mxCell>
        <mxCell id="CnT8XC3Yh3xOQjfNWCCS-30" value="Train" style="swimlane;fontStyle=1;align=center;verticalAlign=top;childLayout=stackLayout;horizontal=1;startSize=30;horizontalStack=0;resizeParent=1;resizeParentMax=0;resizeLast=0;collapsible=1;marginBottom=0;fontSize=19;" parent="WIyWlLk6GJQsqaUBKTNV-1" vertex="1">
          <mxGeometry x="470" y="840" width="170" height="108" as="geometry" />
        </mxCell>
        <mxCell id="CnT8XC3Yh3xOQjfNWCCS-31" value="+train_id_and_name = string&#xa;+train_date = date&#xa;+train_coach_number = int&#xa;+train_berth_number = int&#xa;&#xa;" style="text;strokeColor=none;fillColor=none;align=left;verticalAlign=top;spacingLeft=4;spacingRight=4;overflow=hidden;rotatable=0;points=[[0,0.5],[1,0.5]];portConstraint=eastwest;" parent="CnT8XC3Yh3xOQjfNWCCS-30" vertex="1">
          <mxGeometry y="30" width="170" height="70" as="geometry" />
        </mxCell>
        <mxCell id="CnT8XC3Yh3xOQjfNWCCS-32" value="" style="line;strokeWidth=1;fillColor=none;align=left;verticalAlign=middle;spacingTop=-1;spacingLeft=3;spacingRight=3;rotatable=0;labelPosition=right;points=[];portConstraint=eastwest;" parent="CnT8XC3Yh3xOQjfNWCCS-30" vertex="1">
          <mxGeometry y="100" width="170" height="8" as="geometry" />
        </mxCell>
        <mxCell id="CnT8XC3Yh3xOQjfNWCCS-37" value="Transportation" style="swimlane;fontStyle=1;align=center;verticalAlign=top;childLayout=stackLayout;horizontal=1;startSize=30;horizontalStack=0;resizeParent=1;resizeParentMax=0;resizeLast=0;collapsible=1;marginBottom=0;fontSize=19;" parent="WIyWlLk6GJQsqaUBKTNV-1" vertex="1">
          <mxGeometry x="420" y="510" width="200" height="220" as="geometry" />
        </mxCell>
        <mxCell id="CnT8XC3Yh3xOQjfNWCCS-38" value="+transportation_id = int&#xa;+transportation_name = int&#xa;+transportation_description = string&#xa;+departure_time = time&#xa;+arrival_time = time&#xa;+destination = string&#xa;+departure_place = string" style="text;strokeColor=none;fillColor=none;align=left;verticalAlign=top;spacingLeft=4;spacingRight=4;overflow=hidden;rotatable=0;points=[[0,0.5],[1,0.5]];portConstraint=eastwest;" parent="CnT8XC3Yh3xOQjfNWCCS-37" vertex="1">
          <mxGeometry y="30" width="200" height="110" as="geometry" />
        </mxCell>
        <mxCell id="CnT8XC3Yh3xOQjfNWCCS-39" value="" style="line;strokeWidth=1;fillColor=none;align=left;verticalAlign=middle;spacingTop=-1;spacingLeft=3;spacingRight=3;rotatable=0;labelPosition=right;points=[];portConstraint=eastwest;" parent="CnT8XC3Yh3xOQjfNWCCS-37" vertex="1">
          <mxGeometry y="140" width="200" height="8" as="geometry" />
        </mxCell>
        <mxCell id="CnT8XC3Yh3xOQjfNWCCS-40" value="+addTransportation()&#xa;+cancelTransportation()&#xa;+editTransportation()&#xa;+searchTransportation()&#xa;" style="text;strokeColor=none;fillColor=none;align=left;verticalAlign=top;spacingLeft=4;spacingRight=4;overflow=hidden;rotatable=0;points=[[0,0.5],[1,0.5]];portConstraint=eastwest;" parent="CnT8XC3Yh3xOQjfNWCCS-37" vertex="1">
          <mxGeometry y="148" width="200" height="72" as="geometry" />
        </mxCell>
        <mxCell id="CnT8XC3Yh3xOQjfNWCCS-41" value="Cab" style="swimlane;fontStyle=1;align=center;verticalAlign=top;childLayout=stackLayout;horizontal=1;startSize=30;horizontalStack=0;resizeParent=1;resizeParentMax=0;resizeLast=0;collapsible=1;marginBottom=0;fontSize=19;" parent="WIyWlLk6GJQsqaUBKTNV-1" vertex="1">
          <mxGeometry x="680" y="830" width="160" height="98" as="geometry" />
        </mxCell>
        <mxCell id="CnT8XC3Yh3xOQjfNWCCS-42" value="+cab_id = int&#xa;+cab_description = string &#xa;+cab_type = string " style="text;strokeColor=none;fillColor=none;align=left;verticalAlign=top;spacingLeft=4;spacingRight=4;overflow=hidden;rotatable=0;points=[[0,0.5],[1,0.5]];portConstraint=eastwest;" parent="CnT8XC3Yh3xOQjfNWCCS-41" vertex="1">
          <mxGeometry y="30" width="160" height="60" as="geometry" />
        </mxCell>
        <mxCell id="CnT8XC3Yh3xOQjfNWCCS-43" value="" style="line;strokeWidth=1;fillColor=none;align=left;verticalAlign=middle;spacingTop=-1;spacingLeft=3;spacingRight=3;rotatable=0;labelPosition=right;points=[];portConstraint=eastwest;" parent="CnT8XC3Yh3xOQjfNWCCS-41" vertex="1">
          <mxGeometry y="90" width="160" height="8" as="geometry" />
        </mxCell>
        <mxCell id="kCTdOwqgSDNi52zJ9CbB-4" value="Bus" style="swimlane;fontStyle=1;align=center;verticalAlign=top;childLayout=stackLayout;horizontal=1;startSize=30;horizontalStack=0;resizeParent=1;resizeParentMax=0;resizeLast=0;collapsible=1;marginBottom=0;fontSize=20;" vertex="1" parent="WIyWlLk6GJQsqaUBKTNV-1">
          <mxGeometry x="710" y="700" width="160" height="88" as="geometry" />
        </mxCell>
        <mxCell id="kCTdOwqgSDNi52zJ9CbB-5" value="+bus_number = int&#xa;+seat_number = int&#xa;+no_of_seats = int&#xa;" style="text;strokeColor=none;fillColor=none;align=left;verticalAlign=top;spacingLeft=4;spacingRight=4;overflow=hidden;rotatable=0;points=[[0,0.5],[1,0.5]];portConstraint=eastwest;" vertex="1" parent="kCTdOwqgSDNi52zJ9CbB-4">
          <mxGeometry y="30" width="160" height="50" as="geometry" />
        </mxCell>
        <mxCell id="kCTdOwqgSDNi52zJ9CbB-6" value="" style="line;strokeWidth=1;fillColor=none;align=left;verticalAlign=middle;spacingTop=-1;spacingLeft=3;spacingRight=3;rotatable=0;labelPosition=right;points=[];portConstraint=eastwest;" vertex="1" parent="kCTdOwqgSDNi52zJ9CbB-4">
          <mxGeometry y="80" width="160" height="8" as="geometry" />
        </mxCell>
        <mxCell id="CnT8XC3Yh3xOQjfNWCCS-13" value="Booking Class" style="swimlane;fontStyle=1;align=center;verticalAlign=top;childLayout=stackLayout;horizontal=1;startSize=40;horizontalStack=0;resizeParent=1;resizeParentMax=0;resizeLast=0;collapsible=1;marginBottom=0;fontSize=19;" parent="WIyWlLk6GJQsqaUBKTNV-1" vertex="1">
          <mxGeometry x="320" y="180" width="170" height="210" as="geometry" />
        </mxCell>
        <mxCell id="CnT8XC3Yh3xOQjfNWCCS-14" value="+booking_id = int&#xa;+booking_description = string&#xa;+booking_date = date&#xa;+booking_vehicle_id = int&#xa;+booking_hotel_id = int&#xa;" style="text;strokeColor=none;fillColor=none;align=left;verticalAlign=top;spacingLeft=4;spacingRight=4;overflow=hidden;rotatable=0;points=[[0,0.5],[1,0.5]];portConstraint=eastwest;" parent="CnT8XC3Yh3xOQjfNWCCS-13" vertex="1">
          <mxGeometry y="40" width="170" height="90" as="geometry" />
        </mxCell>
        <mxCell id="CnT8XC3Yh3xOQjfNWCCS-15" value="" style="line;strokeWidth=1;fillColor=none;align=left;verticalAlign=middle;spacingTop=-1;spacingLeft=3;spacingRight=3;rotatable=0;labelPosition=right;points=[];portConstraint=eastwest;" parent="CnT8XC3Yh3xOQjfNWCCS-13" vertex="1">
          <mxGeometry y="130" width="170" height="8" as="geometry" />
        </mxCell>
        <mxCell id="CnT8XC3Yh3xOQjfNWCCS-16" value="+addBooking()&#xa;+editBooking()&#xa;+deleteBooking()&#xa;+searchBooking()&#xa;" style="text;strokeColor=none;fillColor=none;align=left;verticalAlign=top;spacingLeft=4;spacingRight=4;overflow=hidden;rotatable=0;points=[[0,0.5],[1,0.5]];portConstraint=eastwest;" parent="CnT8XC3Yh3xOQjfNWCCS-13" vertex="1">
          <mxGeometry y="138" width="170" height="72" as="geometry" />
        </mxCell>
        <mxCell id="CnT8XC3Yh3xOQjfNWCCS-5" value="Payment Class" style="swimlane;fontStyle=1;align=center;verticalAlign=top;childLayout=stackLayout;horizontal=1;startSize=40;horizontalStack=0;resizeParent=1;resizeParentMax=0;resizeLast=0;collapsible=1;marginBottom=0;fontSize=19;" parent="WIyWlLk6GJQsqaUBKTNV-1" vertex="1">
          <mxGeometry x="620" y="180" width="170" height="210" as="geometry" />
        </mxCell>
        <mxCell id="CnT8XC3Yh3xOQjfNWCCS-6" value="+payment_id = int&#xa;+payment_amount = int&#xa;+payment_merchant = string&#xa;+payment_description = string&#xa;+payment_date = date" style="text;strokeColor=none;fillColor=none;align=left;verticalAlign=top;spacingLeft=4;spacingRight=4;overflow=hidden;rotatable=0;points=[[0,0.5],[1,0.5]];portConstraint=eastwest;" parent="CnT8XC3Yh3xOQjfNWCCS-5" vertex="1">
          <mxGeometry y="40" width="170" height="90" as="geometry" />
        </mxCell>
        <mxCell id="CnT8XC3Yh3xOQjfNWCCS-7" value="" style="line;strokeWidth=1;fillColor=none;align=left;verticalAlign=middle;spacingTop=-1;spacingLeft=3;spacingRight=3;rotatable=0;labelPosition=right;points=[];portConstraint=eastwest;" parent="CnT8XC3Yh3xOQjfNWCCS-5" vertex="1">
          <mxGeometry y="130" width="170" height="8" as="geometry" />
        </mxCell>
        <mxCell id="CnT8XC3Yh3xOQjfNWCCS-8" value="+addPayment()&#xa;+editPayment()&#xa;+DeletePayment()&#xa;+SearchPayment()" style="text;strokeColor=none;fillColor=none;align=left;verticalAlign=top;spacingLeft=4;spacingRight=4;overflow=hidden;rotatable=0;points=[[0,0.5],[1,0.5]];portConstraint=eastwest;" parent="CnT8XC3Yh3xOQjfNWCCS-5" vertex="1">
          <mxGeometry y="138" width="170" height="72" as="geometry" />
        </mxCell>
        <mxCell id="kCTdOwqgSDNi52zJ9CbB-9" value="" style="endArrow=classic;html=1;fontSize=20;" edge="1" parent="WIyWlLk6GJQsqaUBKTNV-1">
          <mxGeometry width="50" height="50" relative="1" as="geometry">
            <mxPoint x="520" y="839" as="sourcePoint" />
            <mxPoint x="520" y="730" as="targetPoint" />
          </mxGeometry>
        </mxCell>
        <mxCell id="kCTdOwqgSDNi52zJ9CbB-11" value="" style="endArrow=classic;html=1;fontSize=20;exitX=0.103;exitY=-0.006;exitDx=0;exitDy=0;exitPerimeter=0;entryX=0.846;entryY=1.014;entryDx=0;entryDy=0;entryPerimeter=0;" edge="1" parent="WIyWlLk6GJQsqaUBKTNV-1" source="CnT8XC3Yh3xOQjfNWCCS-41" target="CnT8XC3Yh3xOQjfNWCCS-40">
          <mxGeometry width="50" height="50" relative="1" as="geometry">
            <mxPoint x="650" y="730" as="sourcePoint" />
            <mxPoint x="620" y="670" as="targetPoint" />
          </mxGeometry>
        </mxCell>
        <mxCell id="kCTdOwqgSDNi52zJ9CbB-13" value="" style="endArrow=classic;html=1;fontSize=20;exitX=0.01;exitY=0.996;exitDx=0;exitDy=0;exitPerimeter=0;" edge="1" parent="WIyWlLk6GJQsqaUBKTNV-1" source="kCTdOwqgSDNi52zJ9CbB-5">
          <mxGeometry width="50" height="50" relative="1" as="geometry">
            <mxPoint x="700" y="770" as="sourcePoint" />
            <mxPoint x="620" y="680" as="targetPoint" />
          </mxGeometry>
        </mxCell>
        <mxCell id="kCTdOwqgSDNi52zJ9CbB-15" value="" style="endArrow=none;html=1;fontSize=20;exitX=0.75;exitY=0;exitDx=0;exitDy=0;" edge="1" parent="WIyWlLk6GJQsqaUBKTNV-1" source="CnT8XC3Yh3xOQjfNWCCS-37">
          <mxGeometry width="50" height="50" relative="1" as="geometry">
            <mxPoint x="540" y="410" as="sourcePoint" />
            <mxPoint x="490" y="350" as="targetPoint" />
          </mxGeometry>
        </mxCell>
        <mxCell id="kCTdOwqgSDNi52zJ9CbB-16" value="" style="endArrow=none;html=1;fontSize=20;exitX=0.156;exitY=-0.007;exitDx=0;exitDy=0;exitPerimeter=0;" edge="1" parent="WIyWlLk6GJQsqaUBKTNV-1" source="CnT8XC3Yh3xOQjfNWCCS-0">
          <mxGeometry width="50" height="50" relative="1" as="geometry">
            <mxPoint x="270" y="380" as="sourcePoint" />
            <mxPoint x="320" y="330" as="targetPoint" />
          </mxGeometry>
        </mxCell>
        <mxCell id="kCTdOwqgSDNi52zJ9CbB-20" value="" style="endArrow=classic;html=1;fontSize=20;exitX=0.63;exitY=-0.014;exitDx=0;exitDy=0;exitPerimeter=0;" edge="1" parent="WIyWlLk6GJQsqaUBKTNV-1" source="CnT8XC3Yh3xOQjfNWCCS-25">
          <mxGeometry width="50" height="50" relative="1" as="geometry">
            <mxPoint x="420" y="780" as="sourcePoint" />
            <mxPoint x="470" y="730" as="targetPoint" />
          </mxGeometry>
        </mxCell>
        <mxCell id="kCTdOwqgSDNi52zJ9CbB-22" value="" style="endArrow=classic;html=1;fontSize=20;entryX=-0.016;entryY=0.416;entryDx=0;entryDy=0;entryPerimeter=0;" edge="1" parent="WIyWlLk6GJQsqaUBKTNV-1" source="CnT8XC3Yh3xOQjfNWCCS-14" target="CnT8XC3Yh3xOQjfNWCCS-6">
          <mxGeometry width="50" height="50" relative="1" as="geometry">
            <mxPoint x="420" y="360" as="sourcePoint" />
            <mxPoint x="470" y="310" as="targetPoint" />
          </mxGeometry>
        </mxCell>
        <mxCell id="kCTdOwqgSDNi52zJ9CbB-23" value="User" style="swimlane;fontStyle=1;align=center;verticalAlign=top;childLayout=stackLayout;horizontal=1;startSize=30;horizontalStack=0;resizeParent=1;resizeParentMax=0;resizeLast=0;collapsible=1;marginBottom=0;fontSize=20;" vertex="1" parent="WIyWlLk6GJQsqaUBKTNV-1">
          <mxGeometry x="40" y="160" width="160" height="160" as="geometry" />
        </mxCell>
        <mxCell id="kCTdOwqgSDNi52zJ9CbB-24" value="+username = string&#xa;+password = string&#xa;+user_email = string&#xa;+user_dob = date&#xa;" style="text;strokeColor=none;fillColor=none;align=left;verticalAlign=top;spacingLeft=4;spacingRight=4;overflow=hidden;rotatable=0;points=[[0,0.5],[1,0.5]];portConstraint=eastwest;" vertex="1" parent="kCTdOwqgSDNi52zJ9CbB-23">
          <mxGeometry y="30" width="160" height="70" as="geometry" />
        </mxCell>
        <mxCell id="kCTdOwqgSDNi52zJ9CbB-25" value="" style="line;strokeWidth=1;fillColor=none;align=left;verticalAlign=middle;spacingTop=-1;spacingLeft=3;spacingRight=3;rotatable=0;labelPosition=right;points=[];portConstraint=eastwest;" vertex="1" parent="kCTdOwqgSDNi52zJ9CbB-23">
          <mxGeometry y="100" width="160" height="8" as="geometry" />
        </mxCell>
        <mxCell id="kCTdOwqgSDNi52zJ9CbB-26" value="+login()&#xa;+logout()&#xa;+search()" style="text;strokeColor=none;fillColor=none;align=left;verticalAlign=top;spacingLeft=4;spacingRight=4;overflow=hidden;rotatable=0;points=[[0,0.5],[1,0.5]];portConstraint=eastwest;" vertex="1" parent="kCTdOwqgSDNi52zJ9CbB-23">
          <mxGeometry y="108" width="160" height="52" as="geometry" />
        </mxCell>
        <mxCell id="kCTdOwqgSDNi52zJ9CbB-27" value="Testimonial/Review" style="swimlane;fontStyle=1;align=center;verticalAlign=top;childLayout=stackLayout;horizontal=1;startSize=30;horizontalStack=0;resizeParent=1;resizeParentMax=0;resizeLast=0;collapsible=1;marginBottom=0;fontSize=20;" vertex="1" parent="WIyWlLk6GJQsqaUBKTNV-1">
          <mxGeometry x="210" width="190" height="140" as="geometry" />
        </mxCell>
        <mxCell id="kCTdOwqgSDNi52zJ9CbB-28" value="+description = string&#xa;+images = []&#xa;+videos = []&#xa;" style="text;strokeColor=none;fillColor=none;align=left;verticalAlign=top;spacingLeft=4;spacingRight=4;overflow=hidden;rotatable=0;points=[[0,0.5],[1,0.5]];portConstraint=eastwest;" vertex="1" parent="kCTdOwqgSDNi52zJ9CbB-27">
          <mxGeometry y="30" width="190" height="50" as="geometry" />
        </mxCell>
        <mxCell id="kCTdOwqgSDNi52zJ9CbB-29" value="" style="line;strokeWidth=1;fillColor=none;align=left;verticalAlign=middle;spacingTop=-1;spacingLeft=3;spacingRight=3;rotatable=0;labelPosition=right;points=[];portConstraint=eastwest;" vertex="1" parent="kCTdOwqgSDNi52zJ9CbB-27">
          <mxGeometry y="80" width="190" height="8" as="geometry" />
        </mxCell>
        <mxCell id="kCTdOwqgSDNi52zJ9CbB-30" value="+addTestimonial()&#xa;+editTestimonial()&#xa;+deleteTestimonial()&#xa;" style="text;strokeColor=none;fillColor=none;align=left;verticalAlign=top;spacingLeft=4;spacingRight=4;overflow=hidden;rotatable=0;points=[[0,0.5],[1,0.5]];portConstraint=eastwest;" vertex="1" parent="kCTdOwqgSDNi52zJ9CbB-27">
          <mxGeometry y="88" width="190" height="52" as="geometry" />
        </mxCell>
      </root>
    </mxGraphModel>
  </diagram>
</mxfile>
